<svg width="66" height="41" viewBox="0 0 66 41" fill="none" xmlns="http://www.w3.org/2000/svg">
<path d="M46.7144 9H60.4286L65 22.7143V33.0001H59.1715" stroke="#333333" stroke-width="2" stroke-miterlimit="10" stroke-linecap="round" stroke-linejoin="round"/>
<path d="M47.8572 33.0001L25 33.0001" stroke="#333333" stroke-width="2" stroke-miterlimit="10" stroke-linecap="round" stroke-linejoin="round"/>
<path d="M13 33.0001H5C2.79086 33.0001 1 31.2092 1 29.0001V5C1 2.79086 2.79086 1 5 1H42.7143C44.9234 1 46.7143 2.79086 46.7143 5V23.8572" stroke="#333333" stroke-width="2" stroke-miterlimit="10" stroke-linecap="round" stroke-linejoin="round"/>
<path d="M18.7142 39.8572C22.1857 39.8572 24.9999 37.043 24.9999 33.5715C24.9999 30.1 22.1857 27.2858 18.7142 27.2858C15.2427 27.2858 12.4285 30.1 12.4285 33.5715C12.4285 37.043 15.2427 39.8572 18.7142 39.8572Z" stroke="#333333" stroke-width="2" stroke-miterlimit="10" stroke-linecap="round" stroke-linejoin="round"/>
<path d="M53.5712 39.8571C56.7271 39.8571 59.2855 37.2987 59.2855 34.1428C59.2855 30.9868 56.7271 28.4285 53.5712 28.4285C50.4153 28.4285 47.8569 30.9868 47.8569 34.1428C47.8569 37.2987 50.4153 39.8571 53.5712 39.8571Z" stroke="#333333" stroke-width="2" stroke-miterlimit="10" stroke-linecap="round" stroke-linejoin="round"/>
<path d="M9.77553 9.77147V19.5715H11.6515V15.6935H16.0895V14.0555H11.6515V11.4095H16.5235L16.5375 9.77147H9.77553ZM19.6876 13.5235V12.0815H17.8676V19.5715H19.6876V15.9595C19.6876 14.6015 20.6536 13.6775 22.2356 13.7755V12.0115C21.0736 12.0255 20.1916 12.5435 19.6876 13.5235ZM26.6361 12.0255C24.3961 12.0255 22.8281 13.5655 22.8281 15.8475C22.8281 18.1015 24.3541 19.6415 26.6781 19.6415C27.9941 19.6415 29.0861 19.1655 29.8281 18.3535L28.8481 17.3315C28.3161 17.8775 27.6021 18.1715 26.8321 18.1715C25.7401 18.1715 24.9281 17.5275 24.6901 16.4635H30.2201C30.4021 13.7475 29.2681 12.0255 26.6361 12.0255ZM24.6481 15.2455C24.8161 14.1395 25.5721 13.4395 26.6501 13.4395C27.7841 13.4395 28.5261 14.1395 28.5681 15.2455H24.6481ZM34.9213 12.0255C32.6813 12.0255 31.1133 13.5655 31.1133 15.8475C31.1133 18.1015 32.6393 19.6415 34.9633 19.6415C36.2793 19.6415 37.3713 19.1655 38.1133 18.3535L37.1333 17.3315C36.6013 17.8775 35.8873 18.1715 35.1173 18.1715C34.0253 18.1715 33.2133 17.5275 32.9753 16.4635H38.5053C38.6873 13.7475 37.5533 12.0255 34.9213 12.0255ZM32.9333 15.2455C33.1013 14.1395 33.8573 13.4395 34.9353 13.4395C36.0693 13.4395 36.8113 14.1395 36.8533 15.2455H32.9333Z" fill="black"/>
</svg>
