<svg width="56" height="59" viewBox="0 0 56 59" fill="none" xmlns="http://www.w3.org/2000/svg">
<path d="M12.3387 30.4947L1.33337 51L12 49.6667L17.3334 57.6667L26.0654 38.9014" stroke="#333333" stroke-width="2" stroke-miterlimit="10" stroke-linecap="round" stroke-linejoin="round"/>
<path d="M43.6614 30.4947L54.6667 51L44 49.6667L38.6667 57.6667L29.9347 38.9014" stroke="#333333" stroke-width="2" stroke-miterlimit="10" stroke-linecap="round" stroke-linejoin="round"/>
<path d="M28 39C38.3094 39 46.6667 30.6427 46.6667 20.3334C46.6667 10.024 38.3094 1.66669 28 1.66669C17.6907 1.66669 9.33337 10.024 9.33337 20.3334C9.33337 30.6427 17.6907 39 28 39Z" stroke="#333333" stroke-width="2" stroke-miterlimit="10" stroke-linecap="round" stroke-linejoin="round"/>
<path d="M28.0001 25.6667C30.9456 25.6667 33.3334 23.2789 33.3334 20.3333C33.3334 17.3878 30.9456 15 28.0001 15C25.0546 15 22.6667 17.3878 22.6667 20.3333C22.6667 23.2789 25.0546 25.6667 28.0001 25.6667Z" stroke="#333333" stroke-width="2" stroke-miterlimit="10" stroke-linecap="round" stroke-linejoin="round"/>
</svg>
