<svg width="62" height="62" viewBox="0 0 62 62" fill="none" xmlns="http://www.w3.org/2000/svg">
<path d="M9.66663 43.6507V49.6667C9.66663 54.0854 13.248 57.6667 17.6666 57.6667H21.6666" stroke="#333333" stroke-width="2" stroke-miterlimit="10" stroke-linecap="round" stroke-linejoin="round"/>
<path d="M9.66663 21.016V20.3334C9.66663 10.024 18.024 1.66669 28.3333 1.66669H33.6666C43.976 1.66669 52.3333 10.024 52.3333 20.3334V21.016" stroke="#333333" stroke-width="2" stroke-miterlimit="10" stroke-linecap="round" stroke-linejoin="round"/>
<path d="M16.3333 20.6414C15.4746 20.4454 14.584 20.3334 13.6666 20.3334C7.03863 20.3334 1.66663 25.7054 1.66663 32.3334C1.66663 38.9614 7.03863 44.3334 13.6666 44.3334C14.584 44.3334 15.4746 44.2214 16.3333 44.0254V20.6414Z" stroke="#333333" stroke-width="2" stroke-miterlimit="10" stroke-linecap="round" stroke-linejoin="round"/>
<path d="M45.6666 20.6414C46.5253 20.4454 47.416 20.3334 48.3333 20.3334C54.9613 20.3334 60.3333 25.7054 60.3333 32.3334C60.3333 38.9614 54.9613 44.3334 48.3333 44.3334C47.416 44.3334 46.5253 44.2214 45.6666 44.0254V20.6414Z" stroke="#333333" stroke-width="2" stroke-miterlimit="10" stroke-linecap="round" stroke-linejoin="round"/>
<path d="M37.6666 55H21.6666V60.3333H37.6666V55Z" stroke="#333333" stroke-width="2" stroke-miterlimit="10" stroke-linecap="round" stroke-linejoin="round"/>
</svg>
